# xmcd CD database file
# Copyright (C) 1993-1998 Ti Kan
#
# Track frame offsets:
# 150
# 11580
# 25832
# 36307
# 47135
# 56997
# 69212
# 81360
# 93420
# 106562
# 114445
# 125172
# 139942
# 151875
#
# Disc length: 2193 seconds
# Revision: 0
# Processed by: cddbd v1.4b41PL1 Copyright (c) Steve Scherf et al.
# Submitted via: CDSpectrumPro v3.2.328
#
DISCID=b8088f0e
DTITLE=Chuck Berry - Chuck Berry
DYEAR=1900
DGENRE=
TTITLE0=Rock and roll Music
TTITLE1=Sweet little sexteen
TTITLE2=Maybelline
TTITLE3=Rool over Beethoven
TTITLE4=Memphis
TTITLE5=No particular place to go
TTITLE6=School day
TTITLE7=Johnny be goode
TTITLE8=Too much monkey business
TTITLE9=let it rock
TTITLE10=Promis land
TTITLE11=Reelin' and rockin'
TTITLE12=Around and around
TTITLE13=Carol
EXTD=
EXTT0=
EXTT1=
EXTT2=
EXTT3=
EXTT4=
EXTT5=
EXTT6=
EXTT7=
EXTT8=
EXTT9=
EXTT10=
EXTT11=
EXTT12=
EXTT13=
PLAYORDER=
